<?xml version="1.0"?>
<svg version="1.1" xmlns="http://www.w3.org/2000/svg" width="150px" height="45px" style="border:2px solid black"><path fill="#" d="M50.9921875,16.4453125q-0.0390625-0.4765625,0.0625-0.828125t0.40625-0.578125t0.9765625-0.2265625l2.515625,0q0.515625,0,1.3515625,0.0546875t1.796875,0.1640625t1.9140625,0.3359375t1.7421875,0.5625t1.28125,0.828125t0.4921875,1.1640625q0,0.953125-0.5546875,1.7890625t-1.390625,1.5078125t-1.765625,1.1953125t-1.6640625,0.9453125q2.90625,0.640625,4.546875,2.65625t1.640625,5.03125q0,1.59375-0.609375,3.1484375t-1.6640625,2.8046875t-2.5,2.015625t-3.1015625,0.765625q-0.21875,0-0.4921875-0.046875t-0.5-0.1484375t-0.390625-0.2890625t-0.1640625-0.484375q0-1.375,1.484375-1.375q0.25,0,0.5859375,0.0703125t0.5234375,0.2890625q0.859375-0.359375,1.5703125-1.140625t1.203125-1.7421875t0.765625-2.015625t0.2734375-1.9140625q0-1.03125-0.3046875-2.1015625t-0.8828125-1.984375t-1.421875-1.5390625t-1.9375-0.78125q-0.28125-0.03125-0.6171875-0.046875l-0.671875-0.03125t-0.65625-0.09375t-0.5546875-0.25q0.125,2.59375,0.3203125,5.171875t0.5234375,5.171875q0.125,0.125,0.171875,0.3671875t0.078125,0.515625t0.03125,0.5234375l0,0.421875q0,0.28125-0.1875,0.4609375t-0.4453125,0.2890625t-0.546875,0.140625t-0.5078125,0.03125q-0.703125,0-1.078125-0.1875t-0.53125-0.546875t-0.203125-0.8203125t-0.078125-1.0078125q-0.421875-4.359375-0.609375-8.625t-0.1875-8.625q0-0.515625-0.0390625-0.9921875z M53.875,15.78125q0,1.921875,0.125,3.8515625t0.21875,3.8515625q0.703125-0.421875,1.84375-0.9921875t2.2109375-1.2578125t1.8359375-1.515625t0.765625-1.796875q0-0.765625-0.90625-1.1640625t-2.109375-0.59375t-2.3515625-0.2421875t-1.6328125-0.140625z M67.52609375,32.671875q0-1.0625,0.2890625-2.046875t0.8671875-1.7578125t1.4453125-1.234375t2.0078125-0.4609375q0.703125,0,1.5546875,0.2109375t1.6015625,0.625t1.25,1.0546875t0.5,1.46875q0,0.390625-0.1328125,0.59375t-0.5390625,0.203125l-0.171875-0.03125q0.453125,1.21875,0.78125,2.5t0.640625,2.5625q0.125,0.25,0.1875,0.4453125t0.0625,0.3828125q0,0.25-0.140625,0.4140625t-0.3671875,0.2421875t-0.46875,0.109375t-0.4296875,0.03125q-0.671875,0-1.0078125-0.234375t-0.484375-0.640625t-0.1796875-0.9140625t-0.125-1.0234375q-0.1875,0.609375-0.4921875,1.1875t-0.71875,1.0390625t-0.9765625,0.734375t-1.265625,0.2734375q-1.03125,0-1.734375-0.59375t-1.1328125-1.4609375t-0.625-1.8515625t-0.1953125-1.828125z M69.74484375,32.453125q0,0.578125,0.078125,1.21875t0.2578125,1.265625t0.4609375,1.1796875t0.703125,0.9765625q0.765625-0.828125,1.1328125-2.015625t0.65625-2.2890625t0.65625-1.890625t1.1328125-0.7890625q0.484375,0,0.8125,0.171875q-0.15625-0.390625-0.515625-0.7578125t-0.8046875-0.671875t-0.921875-0.5t-0.8984375-0.1953125q-0.125,0-0.2890625,0.0390625t-0.2578125,0.0078125q-0.640625,0.1875-1.0546875,0.6484375t-0.671875,1.0859375t-0.3671875,1.28125t-0.109375,1.234375z M81.0678125,28.125q0-1.09375,0.1015625-2.84375t0.2421875-3.609375t0.3515625-3.5234375t0.4609375-2.5546875q0.09375-0.390625,0.4453125-0.46875t0.7109375-0.078125q0.484375,0,0.8359375,0.171875t0.3515625,0.75q0,2.84375-0.3515625,5.6953125t-0.3828125,5.6953125q0.484375-0.734375,1.25-1.1015625t1.625-0.3671875q1.1875,0,2.046875,0.484375t1.390625,1.25t0.7890625,1.7734375t0.2578125,2.0546875q0,0.578125-0.1171875,1.4453125t-0.3515625,1.828125t-0.59375,1.90625t-0.8515625,1.6953125t-1.1328125,1.2109375t-1.40625,0.4609375q-0.15625,0-0.4140625-0.046875t-0.515625-0.140625t-0.4296875-0.2421875t-0.171875-0.3671875q0-0.25,0.3046875-0.3515625t0.4921875-0.1015625q0.703125-0.3125,1.25-1.3046875t0.9140625-2.1796875t0.5546875-2.3515625t0.1875-1.8984375q0-0.421875-0.125-1.125t-0.3828125-1.390625t-0.703125-1.1875t-1.0546875-0.5q-0.734375,0-1.171875,0.7578125t-0.6875,1.765625t-0.3359375,2.078125t-0.0859375,1.6796875q0,0.390625,0.1328125,0.7734375t0.3046875,0.765625t0.3046875,0.78125t0.1328125,0.7890625q0,0.1875-0.1640625,0.3125t-0.3828125,0.203125t-0.4609375,0.1015625t-0.3671875,0.0234375q-0.890625,0-1.234375-0.421875t-0.59375-1.1875q-0.546875-1.734375-0.7578125-3.5234375t-0.2109375-3.5859375z M93.75015625,31.296875q0-0.3125,0.0703125-0.828125t0.1640625-1.0234375t0.21875-0.9453125t0.296875-0.5625q0.125-0.125,0.4296875-0.25t0.640625-0.1796875t0.625,0.046875t0.3515625,0.4140625q-0.21875,0.28125-0.3984375,0.9609375t-0.2734375,1.5078125q-0.078125,0.703125-0.078125,1.453125l0,0.265625q0.015625,0.875,0.15625,1.609375t0.4296875,1.2109375t0.8046875,0.4765625q1.09375,0,2-1.0078125t1.609375-2.4609375t1.234375-3.0859375t0.90625-2.8515625q0.09375-0.359375,0.4453125-0.484375t0.7578125-0.0859375t0.7265625,0.1953125t0.3828125,0.375q-0.3125,2.625-0.4921875,5.25t-0.1796875,5.28125q0,0.515625,0.046875,0.9453125t-0.046875,0.734375t-0.4140625,0.484375t-1.0234375,0.1796875q-0.15625,0-0.3984375-0.03125t-0.5-0.1015625t-0.4375-0.2109375t-0.1796875-0.328125q0-1.15625,0.0859375-2.375t0.2421875-2.359375q-0.421875,0.609375-0.9296875,1.2109375t-1.1171875,1.0859375t-1.3125,0.7734375t-1.515625,0.2890625q-1.15625,0-1.8203125-0.546875t-1-1.3671875t-0.421875-1.7890625t-0.0859375-1.875z"/><path fill="#" d=""/></svg>
